# xmcd CD database file
#
# Track frame offsets:
#	150
#	22177
#	33298
#	54056
#	79051
#	95457
#	111596
#	132233
#	155616
#	169946
#	188266
#
# Disc length: 2891 seconds
#
# Revision: 0
# Processed by: cddbd v1.5.1PL2 Copyright (c) Steve Scherf et al.
# Submitted via: CDex 1.51
#
DISCID=850b490b
DTITLE=Buddy Guy - Feels Like Rain
DYEAR=1993
DGENRE=Blues
TTITLE0=She's a Superstar
TTITLE1=I go crazy
TTITLE2=Feels like rain
TTITLE3=She's 19 years old
TTITLE4=Some kind of Wonderful
TTITLE5=Sufferin' mind
TTITLE6=Change in the Weather
TTITLE7=I could cry
TTITLE8=Mary Ann
TTITLE9=Trouble Man
TTITLE10=Country Man
EXTD=YEAR: 1993
EXTT0=
EXTT1=
EXTT2=
EXTT3=
EXTT4=
EXTT5=
EXTT6=
EXTT7=
EXTT8=
EXTT9=
EXTT10=
PLAYORDER=
